<svg width="27" height="18" viewBox="0 0 27 18" fill="none" xmlns="http://www.w3.org/2000/svg">
<rect y="4.20258" width="21.5688" height="2.10126" rx="1.05063" fill="#C4C4C4"/>
<rect x="4.31372" y="8.40503" width="17.2551" height="2.10126" rx="1.05063" fill="#C4C4C4"/>
<rect x="8.62756" y="12.6076" width="12.9413" height="2.10126" rx="1.05063" fill="#C4C4C4"/>
<path d="M18 0H23.961C25.6178 0 26.961 1.34315 26.961 3V8.40504H24.8041V4.10126C24.8041 2.99669 23.9087 2.10126 22.8041 2.10126H18V0Z" fill="#C4C4C4"/>
<path d="M26.9806 10.5116L26.9806 14.9763C26.9806 16.633 25.6377 17.9759 23.981 17.9759L18.5 17.9759L18.5 15.88L22.8186 15.88C23.923 15.88 24.8183 14.9847 24.8183 13.8803L24.8184 10.5116L26.9806 10.5116Z" fill="#C4C4C4"/>
</svg>
