<svg width="16" height="19" viewBox="0 0 16 19" fill="none" xmlns="http://www.w3.org/2000/svg">
<path d="M9.13114 10.5901C9.13604 10.8662 8.91619 11.094 8.64009 11.0989L3.09622 11.1974C1.4727 11.2262 0.120922 9.95806 0.0461304 8.33601L0.0241166 7.8586C0.0109816 7.57372 0.238403 7.33557 0.523586 7.33557L1.64526 7.33557C1.85007 7.33557 2.02497 7.48341 2.05908 7.68536C2.1974 8.5043 2.91377 9.099 3.74418 9.08426L8.60278 8.99798C8.87888 8.99307 9.10668 9.21292 9.11158 9.48902L9.13114 10.5901Z" fill="#C4C4C4"/>
<path d="M0.0292038 8.03399L0.0289322 4.02058C0.0288205 2.36897 1.36369 1.02792 3.01528 1.02041L6.99772 1.00229C7.27475 1.00102 7.5 1.22525 7.5 1.50228L7.5 2.53412C7.5 2.81026 7.27614 3.03412 7 3.03412L2.90841 3.03412C2.49419 3.03412 2.15841 3.3699 2.15841 3.78412L2.15841 8.03409L0.0292038 8.03399Z" fill="#C4C4C4"/>
<path d="M7.00252 10.5906C7.00113 10.8667 7.22385 11.0917 7.49999 11.0932L12.899 11.1213C14.5233 11.1298 15.8591 9.84399 15.9125 8.22058L15.9282 7.74421C15.9376 7.45922 15.7071 7.22406 15.422 7.22772L14.3323 7.24171C14.1277 7.24433 13.9551 7.39446 13.924 7.59668C13.7982 8.41688 13.0905 9.02103 12.2607 9.01671L7.5106 8.99195C7.23446 8.99051 7.00947 9.2132 7.00808 9.48934L7.00252 10.5906Z" fill="#C4C4C4"/>
<path d="M15.9469 8.03345L15.8968 3.98068C15.8766 2.34483 14.5495 1.0275 12.9135 1.0194L9.50274 1.00249C9.22553 1.00112 9 1.22554 9 1.50276L9 2.56112C9 2.83716 9.22369 3.06086 9.49972 3.06086L13.0497 3.06086C13.4601 3.06086 13.7941 3.39075 13.7992 3.80114L13.8521 8.06044L15.9469 8.03345Z" fill="#C4C4C4"/>
<path d="M9.13158 12.6695C9.13624 12.3934 8.9162 12.1654 8.6401 12.1602L3.14057 12.0574C1.49946 12.0267 0.140782 13.3207 0.0914227 14.9613L0.0155232 17.484C0.00703096 17.7663 0.233809 18 0.516191 18L1.53926 18C1.79958 18 2.01598 17.8002 2.03674 17.5408L2.14995 16.1256C2.23413 15.0733 3.12173 14.2692 4.17726 14.289L8.60279 14.3717C8.87889 14.3769 9.10648 14.1572 9.11114 13.8811L9.13158 12.6695Z" fill="#C4C4C4"/>
<path d="M7.0024 12.669C7.00107 12.3929 7.22385 12.1678 7.49999 12.1663L12.8022 12.1372C14.4646 12.1281 15.8165 13.4726 15.8165 15.1351L15.8165 17.4997C15.8165 17.7759 15.5925 18 15.3162 18L14.461 18C14.2005 18 13.9839 17.8001 13.9629 17.5406L13.8541 16.192C13.77 15.1496 12.8969 14.3485 11.851 14.3543L7.51059 14.3781C7.23446 14.3796 7.00953 14.157 7.00821 13.8808L7.0024 12.669Z" fill="#C4C4C4"/>
</svg>
